<?xml version="1.0" encoding="UTF-8"?>
<svg xmlns="http://www.w3.org/2000/svg" xmlns:xlink="http://www.w3.org/1999/xlink" width="52pt" height="52pt" viewBox="0 0 52 52" version="1.1">
<g id="surface5886380">
<path style=" stroke:none;fill-rule:nonzero;fill:rgb(3.921569%,76.078431%,72.156863%);fill-opacity:1;" d="M 5.898438 19.511719 L 0.59375 19.511719 C 0.292969 19.511719 0.0507812 19.691406 0.046875 20.054688 L 0 33.0625 C 0 33.386719 0.210938 33.550781 0.503906 33.550781 C 1.300781 33.550781 1.949219 33.550781 2.746094 33.550781 C 3.023438 33.550781 3.25 33.414062 3.25 33.144531 C 3.25 31.941406 3.25 30.453125 3.25 29.25 L 5.554688 29.257812 C 7.070312 29.160156 8.082031 28.457031 8.503906 27.035156 C 8.632812 26.609375 8.65625 26.242188 8.65625 25.804688 L 8.777344 22.703125 C 8.664062 20.523438 7.527344 19.695312 5.898438 19.511719 Z M 5.410156 25.421875 C 5.410156 25.738281 5.148438 26 4.832031 26 L 3.25 26 L 3.25 22.75 L 4.832031 22.75 C 5.148438 22.75 5.410156 23.011719 5.410156 23.328125 Z M 15.097656 19.5 L 11.390625 19.5 C 11.109375 19.5 10.867188 19.585938 10.867188 19.878906 C 10.867188 20.644531 10.867188 21.5 10.867188 22.265625 C 10.898438 22.582031 11.117188 22.75 11.429688 22.75 L 14.523438 22.75 C 15.167969 22.75 15.101562 23.804688 14.523438 23.832031 L 12.828125 23.832031 C 10.941406 23.832031 9.75 25.527344 9.75 27.230469 C 9.75 27.6875 9.753906 28.753906 9.75 29.25 C 9.742188 29.957031 9.734375 30.671875 9.871094 31.308594 C 10.113281 32.433594 11.089844 33.582031 12.5625 33.582031 L 17.144531 33.582031 C 17.730469 33.582031 18.414062 33.070312 18.414062 32.390625 L 18.414062 23.425781 C 18.445312 21.0625 17.269531 19.625 15.097656 19.5 Z M 15.167969 29.847656 C 15.167969 30.113281 14.949219 30.332031 14.679688 30.332031 L 13.484375 30.332031 C 13.21875 30.332031 13 30.113281 13 29.847656 L 13 27.570312 C 13 27.300781 13.21875 27.082031 13.484375 27.082031 L 14.679688 27.082031 C 14.949219 27.082031 15.167969 27.300781 15.167969 27.570312 Z M 19.5 20.144531 L 19.5 26.21875 C 19.632812 27.953125 21.242188 29.25 22.933594 29.25 L 24.46875 29.25 C 25.113281 29.25 25.074219 30.300781 24.46875 30.300781 L 21.113281 30.300781 C 20.746094 30.300781 20.613281 30.492188 20.613281 30.816406 L 20.613281 33.148438 C 20.613281 33.390625 20.8125 33.574219 21.070312 33.574219 L 24.277344 33.574219 C 26.894531 33.574219 28.167969 32.320312 28.167969 29.503906 L 28.167969 19.929688 C 28.167969 19.628906 27.976562 19.515625 27.796875 19.515625 L 25.300781 19.515625 C 25.058594 19.515625 24.917969 19.777344 24.917969 19.972656 L 24.917969 25.625 C 24.917969 25.839844 24.796875 25.964844 24.605469 25.964844 L 23.195312 25.964844 C 22.90625 25.964844 22.75 25.8125 22.75 25.539062 L 22.75 20.058594 C 22.75 19.734375 22.621094 19.5 22.265625 19.5 C 21.421875 19.5 20.703125 19.5 19.859375 19.5 C 19.574219 19.5 19.5 19.785156 19.5 20.144531 Z M 19.5 20.144531 "/>
<path style=" stroke:none;fill-rule:nonzero;fill:rgb(3.921569%,76.078431%,72.156863%);fill-opacity:1;" d="M 29.292969 22.28125 L 29.292969 19.96875 C 29.292969 19.710938 29.5 19.5 29.757812 19.5 L 30.332031 19.5 C 31.816406 19.191406 32.339844 18.828125 33.246094 17.851562 C 33.800781 17.246094 34.292969 17.089844 34.652344 17.730469 L 34.667969 19.5 L 36.367188 19.5 C 36.625 19.5 36.832031 19.710938 36.832031 19.96875 L 36.832031 22.28125 C 36.832031 22.539062 36.625 22.75 36.367188 22.75 L 34.667969 22.75 L 34.667969 33.117188 C 34.667969 33.375 34.457031 33.582031 34.199219 33.582031 L 31.882812 33.582031 C 31.625 33.582031 31.417969 33.375 31.417969 33.117188 L 31.417969 22.75 L 29.757812 22.75 C 29.503906 22.75 29.292969 22.539062 29.292969 22.28125 Z M 46.574219 33.003906 C 46.574219 33.320312 46.308594 33.582031 45.988281 33.582031 L 43.921875 33.582031 C 43.597656 33.582031 43.335938 33.320312 43.335938 33.003906 L 43.335938 23.800781 C 43.335938 22.410156 41.167969 22.410156 41.167969 23.800781 L 41.167969 33.003906 C 41.167969 33.320312 40.90625 33.582031 40.582031 33.582031 L 38.5 33.582031 C 38.179688 33.582031 37.917969 33.320312 37.917969 33.003906 L 37.917969 20.082031 C 37.917969 19.761719 38.179688 19.5 38.5 19.5 L 40.640625 19.5 C 40.964844 19.5 41.226562 19.761719 41.226562 20.082031 L 41.226562 20.398438 C 42.65625 19.027344 44.804688 19.34375 46.011719 20.644531 C 48.28125 18.039062 52.175781 20.359375 51.992188 23.21875 C 51.992188 26.378906 51.964844 29.820312 51.964844 33.003906 C 51.964844 33.320312 51.699219 33.582031 51.382812 33.582031 L 49.332031 33.582031 C 49.011719 33.582031 48.75 33.320312 48.75 33.003906 C 48.75 29.984375 48.75 26.828125 48.75 23.859375 C 48.75 22.445312 46.582031 22.375 46.582031 23.859375 L 46.582031 33.003906 Z M 46.574219 33.003906 "/>
</g>
</svg>
