<?xml version="1.0" encoding="UTF-8"?>
<svg xmlns="http://www.w3.org/2000/svg" xmlns:xlink="http://www.w3.org/1999/xlink" width="240pt" height="240pt" viewBox="0 0 240 240" version="1.1">
<g id="surface322518">
<path style=" stroke:none;fill-rule:nonzero;fill:rgb(3.921569%,76.078431%,72.156863%);fill-opacity:1;" d="M 192 32 L 48 32 C 39.160156 32 32 39.160156 32 48 L 32 192 C 32 200.839844 39.160156 208 48 208 L 192 208 C 200.839844 208 208 200.839844 208 192 L 208 48 C 208 39.160156 200.839844 32 192 32 Z M 87.632812 176 L 64.03125 176 L 64.03125 100.0625 L 87.632812 100.0625 Z M 75.59375 89.207031 C 67.984375 89.207031 61.832031 83.039062 61.832031 75.449219 C 61.832031 67.855469 67.992188 61.695312 75.59375 61.695312 C 83.175781 61.695312 89.34375 67.863281 89.34375 75.449219 C 89.34375 83.039062 83.175781 89.207031 75.59375 89.207031 Z M 176.03125 176 L 152.449219 176 L 152.449219 139.070312 C 152.449219 130.265625 152.289062 118.9375 140.183594 118.9375 C 127.902344 118.9375 126.015625 128.527344 126.015625 138.433594 L 126.015625 176 L 102.433594 176 L 102.433594 100.0625 L 125.070312 100.0625 L 125.070312 110.441406 L 125.390625 110.441406 C 128.542969 104.472656 136.238281 98.175781 147.71875 98.175781 C 171.617188 98.175781 176.03125 113.902344 176.03125 134.351562 Z M 176.03125 176 "/>
</g>
</svg>
