<?xml version="1.0" encoding="UTF-8"?>
<svg xmlns="http://www.w3.org/2000/svg" xmlns:xlink="http://www.w3.org/1999/xlink" width="240pt" height="240pt" viewBox="0 0 240 240" version="1.1">
<g id="surface321976">
<path style=" stroke:none;fill-rule:nonzero;fill:rgb(3.921569%,76.078431%,72.156863%);fill-opacity:1;" d="M 120 24 C 66.984375 24 24 66.984375 24 120 C 24 173.015625 66.984375 216 120 216 C 173.015625 216 216 173.015625 216 120 C 216 66.984375 173.015625 24 120 24 Z M 96 168 C 69.488281 168 48 146.511719 48 120 C 48 93.488281 69.488281 72 96 72 C 108.480469 72 119.847656 76.769531 128.375 84.585938 L 116.902344 95.816406 C 111.296875 90.953125 104 88 96 88 C 78.328125 88 64 102.328125 64 120 C 64 137.671875 78.328125 152 96 152 C 111.847656 152 124.976562 140.464844 127.519531 125.335938 L 96 125.335938 L 96 109.335938 L 142.742188 109.335938 L 143.007812 110.398438 C 143.648438 113.503906 144 116.710938 144 120 C 144 146.511719 122.511719 168 96 168 Z M 184 128 L 184 144 L 168 144 L 168 128 L 152 128 L 152 112 L 168 112 L 168 96 L 184 96 L 184 112 L 200 112 L 200 128 Z M 184 128 "/>
</g>
</svg>
